<?xml version="1.0" standalone="no"?>
<!DOCTYPE svg PUBLIC "-//W3C//DTD SVG 20010904//EN"
 "http://www.w3.org/TR/2001/REC-SVG-20010904/DTD/svg10.dtd">
<svg version="1.0" xmlns="http://www.w3.org/2000/svg"
 width="70.000000pt" height="72.000000pt" viewBox="0 0 70.000000 72.000000"
 preserveAspectRatio="xMidYMid meet">
<metadata>
Created by potrace 1.16, written by Peter Selinger 2001-2019
</metadata>
<g transform="translate(0.000000,72.000000) scale(0.100000,-0.100000)"
fill="#000000" stroke="none">
<path d="M20 700 c-19 -19 -20 -33 -20 -320 l0 -301 25 -24 c23 -24 29 -25
160 -25 l135 0 0 50 0 49 -69 38 -69 39 160 87 c128 70 163 85 178 77 38 -20
40 -14 40 141 0 145 -6 183 -34 201 -6 4 -66 8 -133 8 l-123 0 0 -115 0 -115
-38 24 -38 24 -42 -25 -42 -25 0 116 0 116 -35 0 c-22 0 -43 -8 -55 -20z"/>
<path d="M400 260 c-47 -26 -84 -51 -83 -56 1 -4 43 -30 95 -57 l93 -50 89 49
c48 28 89 54 89 59 1 12 -162 104 -183 104 -8 -1 -53 -23 -100 -49z"/>
<path d="M382 100 c3 -39 6 -43 61 -73 l57 -32 65 34 c63 32 65 34 65 73 0 22
-4 38 -8 36 -5 -1 -34 -16 -65 -33 l-57 -30 -60 34 -61 33 3 -42z"/>
</g>
</svg>
