<svg width="17" height="17" viewBox="0 0 17 17" fill="none" xmlns="http://www.w3.org/2000/svg">
<path fill-rule="evenodd" clip-rule="evenodd" d="M8.12524 15.0004C9.02811 15.0004 9.92213 14.8226 10.7563 14.4771C11.5904 14.1316 12.3483 13.6252 12.9867 12.9867C13.6252 12.3483 14.1316 11.5904 14.4771 10.7563C14.8226 9.92213 15.0004 9.02811 15.0004 8.12524C15.0004 7.22238 14.8226 6.32835 14.4771 5.49421C14.1316 4.66008 13.6252 3.90216 12.9867 3.26374C12.3483 2.62532 11.5904 2.11889 10.7563 1.77338C9.92213 1.42787 9.02811 1.25004 8.12524 1.25004C6.30182 1.25004 4.55309 1.97439 3.26374 3.26374C1.97439 4.55309 1.25004 6.30182 1.25004 8.12524C1.25004 9.94866 1.97439 11.6974 3.26374 12.9867C4.55309 14.2761 6.30182 15.0004 8.12524 15.0004V15.0004ZM16.2505 8.12524C16.2505 10.2802 15.3944 12.3469 13.8707 13.8707C12.3469 15.3944 10.2802 16.2505 8.12524 16.2505C5.97029 16.2505 3.90361 15.3944 2.37983 13.8707C0.85605 12.3469 0 10.2802 0 8.12524C0 5.97029 0.85605 3.90361 2.37983 2.37983C3.90361 0.85605 5.97029 0 8.12524 0C10.2802 0 12.3469 0.85605 13.8707 2.37983C15.3944 3.90361 16.2505 5.97029 16.2505 8.12524V8.12524Z" fill="#828282"/>
</svg>
