<svg width="86" height="20" viewBox="0 0 86 20" fill="none" xmlns="http://www.w3.org/2000/svg">
<path d="M15.1914 1.05078V1.51953L4.35156 17.7695H9.87891C11.793 17.7695 13.0039 17.5286 13.5117 17.0469C14.0195 16.5521 14.5208 15.3542 15.0156 13.4531L15.6992 13.5898L15.1523 19H0.015625V18.5508L10.6992 2.24219H5.46484C4.05859 2.24219 3.14062 2.48307 2.71094 2.96484C2.28125 3.44661 1.98177 4.38411 1.8125 5.77734H1.12891L1.20703 1.05078H15.1914ZM26.9648 0.914062V13.4141C26.9648 14.2995 27.0885 15.0091 27.3359 15.543C27.8177 16.5326 28.7031 17.0273 29.9922 17.0273C30.8776 17.0273 31.7435 16.7344 32.5898 16.1484C33.0716 15.8229 33.5599 15.3737 34.0547 14.8008V4.09766C34.0547 3.09505 33.8594 2.4375 33.4688 2.125C33.0781 1.8125 32.2969 1.6237 31.125 1.55859V0.914062H37.4336V14.6641C37.4336 15.5495 37.5898 16.1615 37.9023 16.5C38.2279 16.8255 38.9049 16.9688 39.9336 16.9297V17.4766C39.2174 17.6719 38.6901 17.8216 38.3516 17.9258C38.013 18.0169 37.4466 18.1927 36.6523 18.4531C36.3138 18.5703 35.5716 18.8503 34.4258 19.293C34.3607 19.293 34.3216 19.2604 34.3086 19.1953C34.2956 19.1432 34.2891 19.0781 34.2891 19V15.8555C33.4036 16.9102 32.5964 17.6914 31.8672 18.1992C30.7604 18.9805 29.5885 19.3711 28.3516 19.3711C27.2188 19.3711 26.151 18.9674 25.1484 18.1602C24.1328 17.3659 23.625 16.0312 23.625 14.1562V4.01953C23.625 2.97786 23.4036 2.28125 22.9609 1.92969C22.6745 1.70833 22.0625 1.55208 21.125 1.46094V0.914062H26.9648ZM56.2383 8.17969C54.7409 8.67448 53.5039 9.22135 52.5273 9.82031C50.6523 10.9792 49.7148 12.2943 49.7148 13.7656C49.7148 14.9505 50.1055 15.8229 50.8867 16.3828C51.3945 16.7474 51.9609 16.9297 52.5859 16.9297C53.4453 16.9297 54.2656 16.6888 55.0469 16.207C55.8411 15.7253 56.2383 15.1133 56.2383 14.3711V8.17969ZM46.2383 15.1133C46.2383 13.2253 47.1823 11.6497 49.0703 10.3867C50.2682 9.60547 52.6576 8.54427 56.2383 7.20312V5.54297C56.2383 4.21484 56.1081 3.29036 55.8477 2.76953C55.4049 1.89714 54.487 1.46094 53.0938 1.46094C52.4297 1.46094 51.7982 1.63021 51.1992 1.96875C50.6003 2.32031 50.3008 2.80208 50.3008 3.41406C50.3008 3.57031 50.3333 3.83724 50.3984 4.21484C50.4635 4.57943 50.4961 4.8138 50.4961 4.91797C50.4961 5.64714 50.2552 6.15495 49.7734 6.44141C49.5 6.61068 49.1745 6.69531 48.7969 6.69531C48.2109 6.69531 47.7617 6.50651 47.4492 6.12891C47.1367 5.73828 46.9805 5.30859 46.9805 4.83984C46.9805 3.92839 47.5404 2.97786 48.6602 1.98828C49.793 0.985677 51.4466 0.484375 53.6211 0.484375C56.1471 0.484375 57.8594 1.30469 58.7578 2.94531C59.2396 3.84375 59.4805 5.15234 59.4805 6.87109V14.7031C59.4805 15.4583 59.5326 15.9792 59.6367 16.2656C59.806 16.7734 60.1576 17.0273 60.6914 17.0273C60.9909 17.0273 61.2383 16.9818 61.4336 16.8906C61.6289 16.7995 61.9674 16.5781 62.4492 16.2266V17.2422C62.0326 17.75 61.5833 18.1667 61.1016 18.4922C60.3724 18.987 59.6302 19.2344 58.875 19.2344C57.9896 19.2344 57.3451 18.9479 56.9414 18.375C56.5508 17.8021 56.3359 17.1185 56.2969 16.3242C55.3073 17.1836 54.4609 17.8216 53.7578 18.2383C52.5729 18.9414 51.4466 19.293 50.3789 19.293C49.2591 19.293 48.2891 18.9023 47.4688 18.1211C46.6484 17.3268 46.2383 16.3242 46.2383 15.1133ZM67.2695 18.4531C68.194 18.3359 68.8385 18.1081 69.2031 17.7695C69.5807 17.418 69.7695 16.6432 69.7695 15.4453V5.54297C69.7695 4.70964 69.6914 4.1237 69.5352 3.78516C69.2878 3.29036 68.7799 3.04297 68.0117 3.04297C67.8945 3.04297 67.7708 3.04948 67.6406 3.0625C67.5234 3.07552 67.3737 3.09505 67.1914 3.12109V2.4375C67.7253 2.28125 68.9883 1.8776 70.9805 1.22656L72.8164 0.621094C72.9076 0.621094 72.9596 0.653646 72.9727 0.71875C72.9987 0.783854 73.0117 0.875 73.0117 0.992188V3.86328C74.2096 2.74349 75.1471 1.97526 75.8242 1.55859C76.8398 0.920573 77.8945 0.601562 78.9883 0.601562C79.8737 0.601562 80.681 0.855469 81.4102 1.36328C82.8164 2.35286 83.5195 4.11719 83.5195 6.65625V15.7773C83.5195 16.7148 83.7083 17.3919 84.0859 17.8086C84.4635 18.2253 85.0951 18.4401 85.9805 18.4531V19H77.6406V18.4531C78.5911 18.3229 79.2552 18.0625 79.6328 17.6719C80.0104 17.2682 80.1992 16.4023 80.1992 15.0742V6.73438C80.1992 5.61458 79.9909 4.6901 79.5742 3.96094C79.1576 3.21875 78.3893 2.84766 77.2695 2.84766C76.5013 2.84766 75.7201 3.10807 74.9258 3.62891C74.4831 3.92839 73.9102 4.42318 73.207 5.11328V16.0508C73.207 16.9883 73.4154 17.6198 73.832 17.9453C74.2487 18.2578 74.9062 18.4271 75.8047 18.4531V19H67.2695V18.4531Z" fill="#DCC394"/>
</svg>
